<svg
  width="0"
  height="0"
  class="hidden"
  xmlns="http://www.w3.org/2000/svg">
  <symbol id="arrow-left" viewBox="0 0 24 24" fill="currentColor">
    <path d="M16.2426 6.34317L14.8284 4.92896L7.75739 12L14.8285 19.0711L16.2427 17.6569L10.5858 12L16.2426 6.34317Z" />
  </symbol>
  <symbol id="arrow-right" viewBox="0 0 24 24" fill="currentColor">
      <path d="M10.5858 6.34317L12 4.92896L19.0711 12L12 19.0711L10.5858 17.6569L16.2427 12L10.5858 6.34317Z" />
  </symbol>
  <symbol id="x" viewBox="0 0 24 24" fill="currentColor">
    <path d="M6.2253 4.81108C5.83477 4.42056 5.20161 4.42056 4.81108 4.81108C4.42056 5.20161 4.42056 5.83477 4.81108 6.2253L10.5858 12L4.81114 17.7747C4.42062 18.1652 4.42062 18.7984 4.81114 19.1889C5.20167 19.5794 5.83483 19.5794 6.22535 19.1889L12 13.4142L17.7747 19.1889C18.1652 19.5794 18.7984 19.5794 19.1889 19.1889C19.5794 18.7984 19.5794 18.1652 19.1889 17.7747L13.4142 12L19.189 6.2253C19.5795 5.83477 19.5795 5.20161 19.189 4.81108C18.7985 4.42056 18.1653 4.42056 17.7748 4.81108L12 10.5858L6.2253 4.81108Z" />
  </symbol>
  <symbol id="info" viewBox="0 0 24 24" fill="currentColor">
    <path d="M11 10.9794C11 10.4271 11.4477 9.97937 12 9.97937C12.5523 9.97937 13 10.4271 13 10.9794V16.9794C13 17.5317 12.5523 17.9794 12 17.9794C11.4477 17.9794 11 17.5317 11 16.9794V10.9794Z" />
    <path d="M12 6.05115C11.4477 6.05115 11 6.49886 11 7.05115C11 7.60343 11.4477 8.05115 12 8.05115C12.5523 8.05115 13 7.60343 13 7.05115C13 6.49886 12.5523 6.05115 12 6.05115Z" />
    <path fill-rule="evenodd" clip-rule="evenodd" d="M12 2C6.47715 2 2 6.47715 2 12C2 17.5228 6.47715 22 12 22C17.5228 22 22 17.5228 22 12C22 6.47715 17.5228 2 12 2ZM4 12C4 16.4183 7.58172 20 12 20C16.4183 20 20 16.4183 20 12C20 7.58172 16.4183 4 12 4C7.58172 4 4 7.58172 4 12Z" />
  </symbol>
  <symbol id="success" viewBox="0 0 24 24" fill="currentColor">
    <path d="M10.2426 16.3137L6 12.071L7.41421 10.6568L10.2426 13.4853L15.8995 7.8284L17.3137 9.24262L10.2426 16.3137Z" />
    <path fill-rule="evenodd" clip-rule="evenodd" d="M1 12C1 5.92487 5.92487 1 12 1C18.0751 1 23 5.92487 23 12C23 18.0751 18.0751 23 12 23C5.92487 23 1 18.0751 1 12ZM12 21C7.02944 21 3 16.9706 3 12C3 7.02944 7.02944 3 12 3C16.9706 3 21 7.02944 21 12C21 16.9706 16.9706 21 12 21Z" />
  </symbol>
  <symbol id="danger" viewBox="0 0 24 24" fill="currentColor">
    <path d="M12 6C12.5523 6 13 6.44772 13 7V13C13 13.5523 12.5523 14 12 14C11.4477 14 11 13.5523 11 13V7C11 6.44772 11.4477 6 12 6Z" />
  <path d="M12 16C11.4477 16 11 16.4477 11 17C11 17.5523 11.4477 18 12 18C12.5523 18 13 17.5523 13 17C13 16.4477 12.5523 16 12 16Z" />
  <path fill-rule="evenodd" clip-rule="evenodd" d="M12 2C6.47715 2 2 6.47715 2 12C2 17.5228 6.47715 22 12 22C17.5228 22 22 17.5228 22 12C22 6.47715 17.5228 2 12 2ZM4 12C4 16.4183 7.58172 20 12 20C16.4183 20 20 16.4183 20 12C20 7.58172 16.4183 4 12 4C7.58172 4 4 7.58172 4 12Z" />
  </symbol>
</svg>