<svg
  width="0"
  height="0"
  class="hidden"
  xmlns="http://www.w3.org/2000/svg">
  <symbol id="arrow-left" viewBox="0 0 24 24" fill="currentColor">
    <path
      d="M14.7 5.3a1 1 0 0 1 0 1.4L11.41 10l3.3 3.3a1 1 0 0 1-1.42 1.4l-4-4a1 1 0 0 1 0-1.4l4-4a1 1 0 0 1 1.41 0Z" />
  </symbol>
  <symbol id="arrow-right" viewBox="0 0 24 24" fill="currentColor">
    <path
      d="M9.3 5.3a1 1 0 0 0 0 1.4L12.59 10l-3.3 3.3a1 1 0 0 0 1.42 1.4l4-4a1 1 0 0 0 0-1.4l-4-4a1 1 0 0 0-1.41 0Z" />
  </symbol>
  <symbol id="x" viewBox="0 0 24 24" fill="currentColor">
    <path
      d="M18.3 5.7a1 1 0 0 0-1.4 0L12 10.59 7.1 5.7a1 1 0 0 0-1.4 1.4L10.59 12l-4.9 4.9a1 1 0 1 0 1.4 1.4L12 13.41l4.9 4.9a1 1 0 0 0 1.4-1.41L13.41 12l4.9-4.9a1 1 0 0 0-1.41-1.4Z" />
  </symbol>
  <symbol id="info" viewBox="0 0 24 24" fill="currentColor">
    <path
      fill-rule="evenodd"
      d="M12 2c5.523 0 10 4.477 10 10s-4.477 10-10 10S2 17.523 2 12 6.477 2 12 2Zm.75 5a.75.75 0 1 0-1.5 0 .75.75 0 0 0 1.5 0ZM11 10.75a.75.75 0 0 1 1.5 0v5a.75.75 0 0 1-1.5 0v-5Z"
      clip-rule="evenodd" />
  </symbol>
  <symbol id="success" viewBox="0 0 24 24" fill="currentColor">
    <path
      fill-rule="evenodd"
      d="M12 1.5a10.5 10.5 0 1 0 0 21 10.5 10.5 0 0 0 0-21Zm4.03 8.03a.75.75 0 0 0-1.06-1.06l-4.72 4.72-1.22-1.22a.75.75 0 0 0-1.06 1.06l1.75 1.75a.75.75 0 0 0 1.06 0l5.25-5.25Z"
      clip-rule="evenodd" />
  </symbol>
  <symbol id="danger" viewBox="0 0 24 24" fill="currentColor">
    <path
      fill-rule="evenodd"
      d="M12 4.2a1.2 1.2 0 0 1 1.042.6l7.4 12.8a1.2 1.2 0 0 1-1.042 1.8H4.6a1.2 1.2 0 0 1-1.042-1.8l7.4-12.8A1.2 1.2 0 0 1 12 4.2Zm0 3.8a.9.9 0 0 0-.9.9v4.3a.9.9 0 0 0 1.8 0V8.9a.9.9 0 0 0-.9-.9Zm0 8.1a1.05 1.05 0 1 0 0 2.1 1.05 1.05 0 0 0 0-2.1Z"
      clip-rule="evenodd" />
  </symbol>
</svg>